<svg width="800" xmlns="http://www.w3.org/2000/svg" height="800" id="screenshot-a62fb01c-69c4-8068-8007-0ff65ede7ea4" viewBox="0 0 800 800" xmlns:xlink="http://www.w3.org/1999/xlink" fill="none" version="1.1"><g id="shape-a62fb01c-69c4-8068-8007-0ff65ede7ea4" rx="0" ry="0"><g id="shape-a62fb01c-69c4-8068-8007-0ff65ede7ea5"><g class="fills" id="fills-a62fb01c-69c4-8068-8007-0ff65ede7ea5"><path d="M400,0.000003814697265625L400,0.000003814697265625C800,0.000003814697265625,800,0.000003814697265625,800,399.9999694824219L800,399.9999694824219C800,800.0000610351562,800,800.0000610351562,400,800.0000610351562L400,800.0000610351562C0,800.0000610351562,0,800.0000610351562,0,399.9999694824219L0,399.9999694824219C0,0.000003814697265625,0,0.000003814697265625,400,0.000003814697265625" style="fill: rgb(0, 0, 0); fill-opacity: 1;"/></g></g><g id="shape-a62fb01c-69c4-8068-8007-0ff65ede7ea6" rx="0" ry="0" style="mix-blend-mode: screen;"><g id="shape-a62fb01c-69c4-8068-8007-0ff65ede7ea8" style="mix-blend-mode: screen;"><defs><filter id="filter-render-4" x="-0.02" y="-0.02" width="1.04" height="1.04" filterUnits="objectBoundingBox" color-interpolation-filters="sRGB"><feFlood flood-opacity="0" result="BackgroundImageFix"/><feBlend mode="normal" in="SourceGraphic" in2="BackgroundImageFix" result="shape"/><feGaussianBlur stdDeviation="4" result="filter_4f487e8f-2ab2-8081-8007-0ee941ef850b"/></filter><filter id="filter-blur-render-4" x="-0.02" y="-0.02" width="1.04" height="1.04" filterUnits="objectBoundingBox" color-interpolation-filters="sRGB"><feFlood flood-opacity="0" result="BackgroundImageFix"/><feBlend mode="normal" in="SourceGraphic" in2="BackgroundImageFix" result="shape"/><feGaussianBlur stdDeviation="4" result="filter_4f487e8f-2ab2-8081-8007-0ee941ef850b"/></filter></defs><g class="fills" id="fills-a62fb01c-69c4-8068-8007-0ff65ede7ea8"><path d="M480,280L480,280C680,280,680,280,680,479.9999694824219L680,479.9999694824219C680,680,680,680,480,680L480,680C280,680,280,680,280,479.9999694824219L280,479.9999694824219C280,280,280,280,480,280" filter="url(#filter-render-4)" style="fill: rgb(30, 102, 245); fill-opacity: 1;"/></g></g><g id="shape-a62fb01c-69c4-8068-8007-0ff65ede7ea9" style="mix-blend-mode: screen;"><defs><filter id="filter-render-5" x="-0.02" y="-0.02" width="1.04" height="1.04" filterUnits="objectBoundingBox" color-interpolation-filters="sRGB"><feFlood flood-opacity="0" result="BackgroundImageFix"/><feBlend mode="normal" in="SourceGraphic" in2="BackgroundImageFix" result="shape"/><feGaussianBlur stdDeviation="4" result="filter_4f487e8f-2ab2-8081-8007-0ee93f7faa19"/></filter><filter id="filter-blur-render-5" x="-0.02" y="-0.02" width="1.04" height="1.04" filterUnits="objectBoundingBox" color-interpolation-filters="sRGB"><feFlood flood-opacity="0" result="BackgroundImageFix"/><feBlend mode="normal" in="SourceGraphic" in2="BackgroundImageFix" result="shape"/><feGaussianBlur stdDeviation="4" result="filter_4f487e8f-2ab2-8081-8007-0ee93f7faa19"/></filter></defs><g class="fills" id="fills-a62fb01c-69c4-8068-8007-0ff65ede7ea9"><path d="M400,200L400,200C600,200,600,200,600,399.9999694824219L600,399.9999694824219C600,600,600,600,400,600L400,600C200,600,200,600,200,399.9999694824219L200,399.9999694824219C200,200,200,200,400,200" filter="url(#filter-render-5)" style="fill: rgb(64, 160, 43); fill-opacity: 1;"/></g></g><g id="shape-a62fb01c-69c4-8068-8007-0ff65ede7eaa" style="mix-blend-mode: screen;"><defs><filter id="filter-render-6" x="-0.02" y="-0.02" width="1.04" height="1.04" filterUnits="objectBoundingBox" color-interpolation-filters="sRGB"><feFlood flood-opacity="0" result="BackgroundImageFix"/><feBlend mode="normal" in="SourceGraphic" in2="BackgroundImageFix" result="shape"/><feGaussianBlur stdDeviation="4" result="filter_4f487e8f-2ab2-8081-8007-0ee93bf91b25"/></filter><filter id="filter-blur-render-6" x="-0.02" y="-0.02" width="1.04" height="1.04" filterUnits="objectBoundingBox" color-interpolation-filters="sRGB"><feFlood flood-opacity="0" result="BackgroundImageFix"/><feBlend mode="normal" in="SourceGraphic" in2="BackgroundImageFix" result="shape"/><feGaussianBlur stdDeviation="4" result="filter_4f487e8f-2ab2-8081-8007-0ee93bf91b25"/></filter></defs><g class="fills" id="fills-a62fb01c-69c4-8068-8007-0ff65ede7eaa"><path d="M320,120L320,120C520,120,520,120,520,320L520,320C520,520,520,520,320,520L320,520C120,520,120,520,120,320L120,320C120,120,120,120,320,120" filter="url(#filter-render-6)" style="fill: rgb(210, 15, 57); fill-opacity: 1;"/></g></g></g><g id="shape-a62fb01c-69c4-8068-8007-0ff65ede7ea7" rx="0" ry="0" style="mix-blend-mode: color-dodge;"><g id="shape-a62fb01c-69c4-8068-8007-0ff65ede7eab" style="opacity: 0.75; mix-blend-mode: color-dodge;"><defs><filter id="filter-render-8" x="-0.02" y="-0.02" width="1.04" height="1.04" filterUnits="objectBoundingBox" color-interpolation-filters="sRGB"><feFlood flood-opacity="0" result="BackgroundImageFix"/><feBlend mode="normal" in="SourceGraphic" in2="BackgroundImageFix" result="shape"/><feGaussianBlur stdDeviation="4" result="filter_4f487e8f-2ab2-8081-8007-0ee941ef850b"/></filter><filter id="filter-blur-render-8" x="-0.02" y="-0.02" width="1.04" height="1.04" filterUnits="objectBoundingBox" color-interpolation-filters="sRGB"><feFlood flood-opacity="0" result="BackgroundImageFix"/><feBlend mode="normal" in="SourceGraphic" in2="BackgroundImageFix" result="shape"/><feGaussianBlur stdDeviation="4" result="filter_4f487e8f-2ab2-8081-8007-0ee941ef850b"/></filter></defs><g class="fills" id="fills-a62fb01c-69c4-8068-8007-0ff65ede7eab"><path d="M480,280L480,280C680,280,680,280,680,479.9999694824219L680,479.9999694824219C680,680,680,680,480,680L480,680C280,680,280,680,280,479.9999694824219L280,479.9999694824219C280,280,280,280,480,280" filter="url(#filter-render-8)" style="fill: rgb(30, 102, 245); fill-opacity: 1;"/></g></g><g id="shape-a62fb01c-69c4-8068-8007-0ff65ede7eac" style="opacity: 0.75; mix-blend-mode: color-dodge;"><defs><filter id="filter-render-9" x="-0.02" y="-0.02" width="1.04" height="1.04" filterUnits="objectBoundingBox" color-interpolation-filters="sRGB"><feFlood flood-opacity="0" result="BackgroundImageFix"/><feBlend mode="normal" in="SourceGraphic" in2="BackgroundImageFix" result="shape"/><feGaussianBlur stdDeviation="4" result="filter_4f487e8f-2ab2-8081-8007-0ee93f7faa19"/></filter><filter id="filter-blur-render-9" x="-0.02" y="-0.02" width="1.04" height="1.04" filterUnits="objectBoundingBox" color-interpolation-filters="sRGB"><feFlood flood-opacity="0" result="BackgroundImageFix"/><feBlend mode="normal" in="SourceGraphic" in2="BackgroundImageFix" result="shape"/><feGaussianBlur stdDeviation="4" result="filter_4f487e8f-2ab2-8081-8007-0ee93f7faa19"/></filter></defs><g class="fills" id="fills-a62fb01c-69c4-8068-8007-0ff65ede7eac"><path d="M400,200L400,200C600,200,600,200,600,399.9999694824219L600,399.9999694824219C600,600,600,600,400,600L400,600C200,600,200,600,200,399.9999694824219L200,399.9999694824219C200,200,200,200,400,200" filter="url(#filter-render-9)" style="fill: rgb(64, 160, 43); fill-opacity: 1;"/></g></g><g id="shape-a62fb01c-69c4-8068-8007-0ff65ede7ead" style="opacity: 0.75; mix-blend-mode: color-dodge;"><defs><filter id="filter-render-10" x="-0.02" y="-0.02" width="1.04" height="1.04" filterUnits="objectBoundingBox" color-interpolation-filters="sRGB"><feFlood flood-opacity="0" result="BackgroundImageFix"/><feBlend mode="normal" in="SourceGraphic" in2="BackgroundImageFix" result="shape"/><feGaussianBlur stdDeviation="4" result="filter_4f487e8f-2ab2-8081-8007-0ee93bf91b25"/></filter><filter id="filter-blur-render-10" x="-0.02" y="-0.02" width="1.04" height="1.04" filterUnits="objectBoundingBox" color-interpolation-filters="sRGB"><feFlood flood-opacity="0" result="BackgroundImageFix"/><feBlend mode="normal" in="SourceGraphic" in2="BackgroundImageFix" result="shape"/><feGaussianBlur stdDeviation="4" result="filter_4f487e8f-2ab2-8081-8007-0ee93bf91b25"/></filter></defs><g class="fills" id="fills-a62fb01c-69c4-8068-8007-0ff65ede7ead"><path d="M320,120L320,120C520,120,520,120,520,320L520,320C520,520,520,520,320,520L320,520C120,520,120,520,120,320L120,320C120,120,120,120,320,120" filter="url(#filter-render-10)" style="fill: rgb(210, 15, 57); fill-opacity: 1;"/></g></g></g></g></svg>